<svg xmlns="http://www.w3.org/2000/svg" width="54" height="54"><path d="M27 2A25 25 0 0 0 2 27a25 25 0 0 0 25 25 25 25 0 0 0 25-25A25 25 0 0 0 27 2zM16.23 20.733h3.437l.299.3c.26.259.29.37.238.837-.103.919-.207.954-2.808.954-2.722 0-2.585-.081-2.586 1.535 0 .892.038 1.165.186 1.299.145.13.632.178 2.144.207 1.894.036 1.963.046 2.178.311.29.359.29 1.068 0 1.426-.215.266-.284.276-2.178.312-1.512.029-1.999.075-2.144.207-.148.134-.187.406-.186 1.298 0 1.617-.136 1.536 2.586 1.536 2.601 0 2.705.035 2.808.954.053.467.021.577-.238.837l-.3.3-3.46-.005c-3.473-.005-4.029-.063-4.265-.445-.1-.163-.1-11.252 0-11.414.24-.387.833-.45 4.29-.45zm15.774 0c2.073 0 3.929.032 4.124.07.824.166 1.107.995.557 1.635-.268.311-.326.325-1.565.367-.903.031-1.325.092-1.418.204-.094.114-.127 1.464-.114 4.746.012 3.045-.023 4.665-.105 4.818-.068.127-.319.284-.558.35-1.046.291-2.142.042-2.282-.518-.044-.174-.071-2.332-.061-4.796.017-4.192.005-4.49-.191-4.632-.134-.098-.56-.153-1.182-.153-1.382 0-1.65-.17-1.65-1.046 0-1.049-.016-1.045 4.445-1.045zm9.724.01c.23-.001.475.005.734.016.738.032 1.432.123 1.59.208 1.032.552 2.436 2.103 2.436 2.69 0 .6-.342.793-1.407.793h-.943l-.77-.813-.771-.813h-.66c-.537 0-.723.055-1.012.298-.37.31-.628.974-.51 1.308.129.365.418.602.89.729.26.07.614.246.788.392.19.16.602.316 1.036.392.91.16 1.973.833 2.744 1.735l.557.651.04 1.11.038 1.111-.467.7c-.266.397-.635.786-.853.898a4.902 4.902 0 0 0-.691.445c-.169.136-.535.291-.813.345-.76.147-2.882.112-3.41-.055-1.26-.4-2.082-.986-2.718-1.938-.92-1.377-.514-2.313 1-2.313.671 0 .94.156 1.177.685.224.5.628 1.002 1.108 1.377.273.212.483.26 1.124.26.687 0 .836-.04 1.161-.313.516-.434.722-.956.56-1.42-.092-.265-.332-.483-.898-.816-.424-.251-.929-.493-1.12-.537-.832-.194-2.59-1.04-3.152-1.514-.462-.39-.666-.677-.9-1.264-.168-.417-.304-.864-.304-.992 0-.389.683-1.771 1.08-2.184.786-.819 1.723-1.16 3.336-1.17zm-19.05.001c.5-.003 1.014.103 1.28.318.245.198.247.24.233 4.86-.012 4.137.007 4.68.173 4.846.156.156.49.187 2.008.187 2.524.001 2.925.144 2.925 1.045 0 .536-.183.789-.67.924-.514.143-6.477.153-6.826.011-.59-.239-.577-.111-.577-6.06 0-5.49.003-5.558.244-5.8.218-.217.708-.328 1.21-.331zm-13.987 0c.509-.007 1.016.094 1.23.307.209.21.22.481.22 5.838 0 5.48-.007 5.624-.235 5.853-.437.437-2.186.352-2.534-.123-.111-.152-.145-1.49-.145-5.752 0-5.33.01-5.562.224-5.777.22-.22.731-.337 1.24-.345z"/></svg>