<svg xmlns="http://www.w3.org/2000/svg" width="54.758" height="50.578"><path d="M32.396 49.346C22.622 45.091 18.79 22.903 25.47 9.248c2.095-4.28 3.502-5.764 7.135-7.523C40.526-2.11 47.562.522 51.767 8.893c4.655 9.266 3.73 28.161-1.753 35.863-3.826 5.373-11.329 7.328-17.618 4.59zm10.829-5.533c3.427-2.695 5.265-9.86 5.167-20.137-.095-9.813-2.157-15.414-6.574-17.853-7.217-3.986-13.06 4.325-13.222 18.801-.184 16.567 6.618 25.49 14.629 19.19zM10 28.775c0-13.995-.35-21-1.05-21-.577 0-2.39.694-4.029 1.541C1.627 11.02 0 10.56 0 7.925 0 5.898 9.689.775 13.522.775H16v49h-6v-21z"/></svg>