<svg xmlns="http://www.w3.org/2000/svg" width="52.007" height="51.53"><path d="M22.703 50.288c-.122-.18-.553-.353-1.513-.605-.738-.194-2.303-.61-3.477-.925a149.298 149.298 0 0 0-2.806-.73 99.095 99.095 0 0 1-2.256-.586c-4.687-1.266-5.923-1.595-6.588-1.756a30.638 30.638 0 0 1-1.647-.464 18.928 18.928 0 0 0-1.624-.428 7.161 7.161 0 0 1-1.25-.38L1 44.174V7.132l.382-.076c.256-.051.889.062 1.921.343.847.231 2.693.728 4.102 1.104 1.409.376 3.138.845 3.843 1.043a406.38 406.38 0 0 0 6.16 1.641c2.347.591 6.366 1.684 6.543 1.779.629.337.595-.776.582 18.775 0 9.966-.05 18.257-.1 18.424-.08.277-.152.309-.823.341-.634.031-.763 0-.91-.217zm5.091-.033c-.1-.371-.102-36.604 0-36.861.142-.372.604-.538 3.708-1.34 1.581-.408 8.46-2.235 10.613-2.818.571-.155 2.41-.645 4.087-1.091 1.678-.446 3.308-.894 3.623-.996.708-.23 1.033-.095 1.134.47.04.218.06 8.505.04 18.417-.04 17.835-.04 18.024-.279 18.264-.134.133-.601.328-1.037.431-.436.104-1.26.325-1.83.491-.57.166-1.449.407-1.952.535-.503.127-1.766.463-2.806.746s-2.494.672-3.232.865L35.41 48.53a933.526 933.526 0 0 0-5.275 1.397c-.25.068-.513.23-.583.362-.107.2-.258.24-.903.24-.7 0-.781-.026-.847-.275zM22.471 9.341c-2.179-.645-3.249-.939-8.371-2.3-6.164-1.637-6.137-1.629-6.471-1.963-.271-.27-.285-.368-.285-1.946 0-.913.06-1.766.126-1.896A.508.508 0 0 1 7.888 1c.359 0 15.932 7.713 16.566 8.205.908.705.121.76-1.983.136zm4.88.33c0-.26.981-.884 2.721-1.73 1.02-.495 4.576-2.26 7.904-3.92C41.304 2.358 44.138 1 44.275 1c.484 0 .553.27.532 2.091-.01.948-.07 1.819-.133 1.935-.06.116-.266.269-.453.34-.449.173-3.472 1-6.135 1.68-.369.094-1.604.426-2.745.738l-2.866.781c-.437.119-1.572.441-2.523.717-1.672.485-2.601.624-2.601.388z" fill="#070707"/></svg>