<svg xmlns="http://www.w3.org/2000/svg" width="54.003" height="55.393"><path d="M27 2A25 25.702 0 0 0 2 27.701a25 25.702 0 0 0 16.645 24.191l2.087-2.167c2.16-2.245 2.436-2.502 2.678-2.502.062 0 .704.603 1.427 1.34 1.016 1.036 1.336 1.42 1.408 1.695.051.196.144.355.207.355.062 0 .375-.272.696-.604.612-.635.663-.83.247-.938-.256-.066-2.693-2.53-2.804-2.835a.59.59 0 0 1 .01-.378c.042-.104 1.634-1.801 3.538-3.772 3.38-3.5 3.731-3.82 5.11-4.665a10.64 10.64 0 0 1 1.835-.87c.256-.088.668-.345.93-.581.598-.537.987-.576 1.35-.134.356.436.303.699-.294 1.441-.206.256-.397.61-.43.8-.147.81-1.09 2.6-2.017 3.826-.235.31-1.702 1.888-3.26 3.506-1.556 1.618-2.83 2.988-2.83 3.046 0 .071.143.084.448.04.55-.077.916.091 1.191.55.238.396.244.776.018 1.145-.095.155-.635.77-1.2 1.365-1.008 1.064-1.484 1.57-1.708 1.838a25 25.702 0 0 0 24.72-25.692A25 25.702 0 0 0 27.004 2zm5.143 19.705c11.106.001 10.532.037 10.904.467.18.208.184.364.21 10.16.02 6.928 0 10.054-.071 10.299-.143.505-.994 1.412-1.58 1.685-.472.219-.54.224-3.108.224h-2.626l-.388-.283c-.56-.407-.772-.74-.772-1.214 0-.49.303-.986.824-1.353l.367-.258 2.149-.028c1.35-.018 2.192-.066 2.267-.13.18-.154.172-12.438-.01-12.592-.093-.08-3.673-.108-13.763-.107-12.762 0-13.643.01-13.75.16-.09.126-.115 1.527-.115 6.258 0 5.416.016 6.113.144 6.244.128.131.802.148 6.022.15 6.647.002 6.302-.035 6.96.755.375.45.438.845.207 1.303-.199.396-.82.929-1.213 1.04-.402.115-12.264.127-12.715.013-.826-.208-1.907-1.119-2.212-1.862-.102-.249-.124-2.082-.124-10.19v-9.888l.282-.33c.159-.186.43-.373.619-.427.222-.063 5.64-.096 15.978-.096h5.512zm1.247 9.113c.436-.002 1.012.002 1.784.006l2.57.014.376.251c1.035.69.98 1.993-.108 2.569-.453.24-.47.24-3.068.269l-2.613.028-.504-.264c-.636-.332-.916-.744-.916-1.346 0-.55.274-1.001.782-1.287.34-.191.39-.237 1.697-.24zm-12.624.018c5.23-.006 5.383 0 5.739.186.717.376 1.05 1.116.79 1.757-.19.465-.378.673-.82.905-.345.181-.552.189-5.463.201-2.808.008-5.268-.02-5.467-.06-.502-.102-1.092-.64-1.214-1.109-.177-.673.1-1.248.83-1.722.206-.135.832-.152 5.605-.158zm.066 4.052c3.82 0 5.478.03 5.62.105.35.185.788.671.89.988.217.678-.398 1.649-1.16 1.83-.423.102-10.304.102-10.716 0-.78-.19-1.353-1.082-1.148-1.784.138-.474.394-.798.78-.986.28-.136.919-.153 5.734-.153zm4.386 16.95c-.025 0-.143.106-.261.235-.118.13-.195.235-.17.235.025 0 .143-.106.261-.235.119-.13.195-.235.17-.235z"/></svg>