<svg xmlns="http://www.w3.org/2000/svg" width="54.501" height="68.553"><path d="M27.108 1l-1.12.456c-.616.251-1.415.615-1.774.808-.36.193-.766.35-.902.35-.137 0-.728.23-1.315.509l-2.05.976c-.54.257-1.167.517-1.393.578-.225.06-.816.322-1.312.581-.496.26-1.012.475-1.148.479-.135.004-.652.225-1.148.492-.496.267-1 .485-1.118.485-.12 0-.636.217-1.148.482-.982.509-3.838 1.695-5.564 2.312-.564.201-1.025.424-1.025.494 0 .214 2.077 1.304 2.486 1.304.211 0 .642.159.958.351.315.193.971.487 1.458.655.486.167.97.376 1.076.463.195.162 1.712.82 3.78 1.641.63.25 1.7.694 2.377.984.676.29 1.746.732 2.378.98.631.25 2.18.896 3.443 1.438 1.263.542 2.407 1.027 2.542 1.077.483.181 1.077.106 1.804-.228.937-.43 4.138-1.767 6.477-2.705.992-.397 2.025-.831 2.296-.964.474-.233 2.142-.937 3.696-1.562.41-.164 1.103-.49 1.541-.722.438-.233.915-.427 1.06-.43.144-.004.668-.226 1.164-.493.496-.267 1.005-.485 1.13-.485.356 0 2.642-1.14 2.642-1.318 0-.087-.076-.158-.168-.158-.316 0-4.668-1.725-6.638-2.631-.54-.25-1.168-.507-1.393-.572a3.416 3.416 0 0 1-.83-.415 3.176 3.176 0 0 0-.902-.412c-.265-.064-.888-.323-1.384-.576-.496-.252-1.123-.51-1.394-.574a3.16 3.16 0 0 1-.902-.4c-.225-.156-.77-.406-1.21-.555a9.71 9.71 0 0 1-1.489-.675c-.38-.223-.822-.405-.982-.405-.16 0-.634-.182-1.052-.405a18.415 18.415 0 0 0-1.853-.807L27.108 1zM14.307 18.348c-.382-.005-.627.366-.832 1.157a33.79 33.79 0 0 1-.59 1.913c-.356 1.05-.398 1.455-.4 3.772 0 2.444.03 2.692.509 4.236.28.902.725 2.103.988 2.668.627 1.346 2.275 3.49 3.236 4.21.419.313 1.167.89 1.664 1.282.837.661 1.469 1.046 2.705 1.647.27.131 1.23.404 2.132.606.902.201 1.714.393 1.804.426.09.033 1.05.032 2.132 0 3.244-.1 5.858-.977 8.2-2.75 1.651-1.252 1.98-1.528 2.623-2.203.832-.873 2.034-2.9 2.672-4.507.622-1.566 1.095-4.658.962-6.288-.185-2.267-.419-3.656-.735-4.37a12.392 12.392 0 0 1-.466-1.216c-.195-.666-.854-.743-1.669-.194a5.86 5.86 0 0 1-1.256.611c-.36.114-.808.305-.993.426-.185.12-.758.364-1.272.54-.515.178-1.139.432-1.386.567-.58.316-3.08 1.412-3.222 1.412-.06 0-.833.332-1.719.738-1.876.86-2.422.906-3.743.312-.521-.234-1.907-.827-3.08-1.318-1.172-.49-2.39-1.028-2.705-1.194a8.968 8.968 0 0 0-1.23-.508 8.374 8.374 0 0 1-1.312-.575c-.36-.202-.877-.42-1.148-.482-.27-.063-.727-.293-1.014-.512-.348-.265-.626-.403-.855-.406zM3.972 25.893c-.348 0-.774.185-1.39.721-.748.65-.81.763-.876 1.592-.093 1.163.122 1.674.96 2.28.769.558 1.521.643 2.266.258.656-.34 1.292-1.15 1.414-1.802.188-1.003-.407-2.036-1.174-2.49-.432-.254-.752-.56-1.2-.559zm34.415 13.29c-.762 0-1.243.62-2.292 2.952a157.277 157.277 0 0 1-1.397 3.036c-.22.452-.402.888-.402.969 0 .19-1.406 3.338-2.685 6.01-.327.683-.594 1.374-.594 1.536 0 .161-.144.561-.32.89-.512.958-1.462 3.103-2.079 4.695-.314.812-.723 1.605-.909 1.763-.853.728-1.573.092-2.272-2.009-.286-.857-.696-1.866-.913-2.243-.217-.377-.395-.809-.395-.96 0-.151-.182-.637-.404-1.08a9.21 9.21 0 0 1-.583-1.5c-.098-.382-.396-1.11-.661-1.62-.266-.508-.484-1.027-.484-1.153 0-.127-.155-.522-.345-.88a17.686 17.686 0 0 1-.72-1.633 97.014 97.014 0 0 0-1.106-2.705c-2.723-6.4-2.426-5.988-4.224-5.85-.676.053-1.876.283-2.667.513-.79.23-1.528.418-1.64.418-.174.001-1.985.88-3.884 1.888-1.701.901-4.68 3.619-5.88 5.363l-.516.75-.012 8.552c-.012 8.524-.01 8.554.348 9.134.197.32.655.795 1.016 1.057l.657.477h48.301l.71-.538c.39-.296.828-.773.973-1.061.145-.289.312-.477.37-.42.057.058.106 0 .107-.127.047-3.52-.016-17.765-.079-17.828-.048-.048-.087.015-.087.14 0 .126-.256-.305-.568-.957-.313-.651-.917-1.557-1.343-2.013-.796-.851-2.467-2.102-3.39-2.538a15.258 15.258 0 0 1-.931-.483c-.745-.432-3.07-1.397-3.382-1.404-.17-.004-.603-.115-.963-.246-.817-.297-3.729-.895-4.355-.895zM53.26 51.736c.006.078.012.387.018.946.026 2.239.026 5.854 0 8.035-.025 2.181-.046.35-.046-4.07 0-3.314.011-5.147.028-4.911z" fill="#010101"/><path d="M6.556 9.908L4.154 26.302" fill="none" stroke="#000" stroke-width=".282"/></svg>