<svg xmlns="http://www.w3.org/2000/svg" width="54.002" height="54.011"><path d="M27.107 2.016C10.894 1.4-2.136 19.112 3.223 34.404c4.206 15.66 24.97 22.902 38 13.245 13.723-8.646 14.5-30.621 1.424-40.217a25.03 25.03 0 0 0-15.54-5.416zm7.424 9.704c1.871-.36 3.49 1.09 4.556 2.376.265 2.651.862 5.384-.057 7.992-.868 2.96-2.838 6.178-6.038 6.909-1.796.707-3.608-.767-4.865-1.07-1.994 1.818-5.506.445-8.104.938-1.42-.273-5.682 1.042-4.394-1.592 1.774-.47 5.125.6 4.663-2.368-.015-1.192 1.333-5.194-.743-3.048-2.046 1.396-2.854-1.451-.994-2.322 1.974-1.918 3.06-4.445 4.54-6.7 1.961-1.83 2.699 1.162 1.635 2.624-.88 3.641-1.77 7.324-1.994 11.07 1.414.157 4.094.55 4.948.01-1.072-3.741-.656-7.947 1.181-11.391 1.114-2.012 3.243-3.743 5.666-3.428zm-.31 2.039c-3.014.676-4.063 4.169-4.473 6.867-.313 2.201-.422 6.324 2.456 6.569 2.396-.769 3.609-3.44 4.273-5.7.818-2.187.237-4.587-.328-6.694-.527-.504-1.153-1.047-1.929-1.042zm4.475 17.127c.683 2.43-.539 5.373-.862 7.938.251 1.653-1.795 2.596-1.073.396.64-2.651.86-5.387 1.429-8.043l.16-.171.346-.12zm-6.75 2.863c1.042-.36 4.816.46 2.372 1.373-1.002-.127-2.324-.68-1.682.929-1.825 1.596-.354 6.325-3.106 6.475.126-2.364.951-4.863 1.405-7.263-.104-.55-2.18-.098-2.738.027.207 2.549-2.72 3.09-3.733 4.625-.893 2.918 4.336-.63 2.391 2.07-2.23 1.928-4.645-.566-3.77-2.978.296-2.099 1.26-5.148 3.844-5.085 1.501 1.6 3.034-.752 5.017-.173zm-11.185.315c1.563 1.18-.713 3.979-.367 5.85-.949 2.419 2.74-.113 1.806 1.968-1.285 1.521-2.911.307-3.51-.849-.654 2.239-5.68 2.072-4.183-.523 1.031-.026 1.817 1.917 2.728.154 2.042-1.693 1.474-5.2 3.526-6.6zm5.679 1.227c-1.16.225-2.074 3.399-.324 1.56.24-.317 1.017-1.322.324-1.56zm10.483 6.22c1.954.554-1.442 2.124-.495.179l.218-.131.277-.047z"/></svg>